<?xml version="1.0" standalone="no"?>
<!DOCTYPE svg PUBLIC "-//W3C//DTD SVG 20010904//EN"
 "http://www.w3.org/TR/2001/REC-SVG-20010904/DTD/svg10.dtd">
<svg version="1.0" xmlns="http://www.w3.org/2000/svg"
 width="372.000000pt" height="372.000000pt" viewBox="0 0 372.000000 372.000000"
 preserveAspectRatio="xMidYMid meet">
<metadata>
Created by potrace 1.11, written by Peter Selinger 2001-2013
</metadata>
<g transform="translate(0.000000,372.000000) scale(0.100000,-0.100000)"
fill="#000000" stroke="none">
<path d="M1755 2980 c-3 -5 -9 -57 -12 -115 -6 -103 -6 -105 15 -105 29 0 28
-16 -3 -36 -23 -15 -25 -21 -19 -61 6 -41 4 -46 -30 -78 -41 -39 -44 -50 -16
-65 46 -25 100 26 100 94 0 23 5 47 11 53 7 7 7 22 -1 52 -7 26 -8 79 -4 145
6 98 6 104 -14 115 -14 7 -23 8 -27 1z"/>
<path d="M2057 2947 c14 -39 4 -99 -23 -140 -26 -39 -89 -76 -131 -77 -29 0
-29 -21 0 -48 24 -23 47 -29 47 -13 0 5 14 12 31 16 36 8 94 57 115 96 29 57
10 167 -31 183 -13 5 -15 2 -8 -17z"/>
<path d="M1936 2938 c-30 -23 -76 -109 -76 -144 0 -33 47 -19 67 20 8 17 29
45 45 62 20 21 29 40 26 55 -4 31 -26 34 -62 7z"/>
<path d="M1280 2936 c0 -17 38 -41 48 -31 9 9 -13 40 -32 43 -9 2 -16 -3 -16
-12z"/>
<path d="M1582 2925 c-7 -14 -15 -57 -18 -95 l-7 -70 26 0 c22 0 27 5 32 38 3
20 11 56 17 79 6 23 8 49 5 58 -10 24 -43 18 -55 -10z"/>
<path d="M1434 2865 c-6 -14 -18 -16 -73 -13 l-65 3 -8 -40 c-4 -22 -7 -106
-7 -187 l-1 -148 -25 -6 c-30 -8 -31 -18 -4 -45 15 -15 28 -19 47 -14 49 11
52 24 45 212 -5 145 -4 173 8 174 8 1 36 2 63 3 55 1 79 23 60 53 -15 24 -33
27 -40 8z"/>
<path d="M1110 2861 c0 -31 88 -58 104 -32 15 24 -7 41 -55 41 -27 0 -49 -4
-49 -9z"/>
<path d="M1588 2703 c-21 -2 -38 -6 -38 -9 0 -3 7 -21 15 -42 20 -46 12 -80
-20 -92 -35 -13 -20 -54 22 -58 44 -5 67 34 58 99 -6 41 -4 49 9 49 9 0 16 3
16 8 0 4 3 17 6 30 7 24 10 23 -68 15z"/>
<path d="M1830 2646 c0 -13 104 -118 131 -132 50 -26 185 16 203 63 9 22 -2
51 -23 63 -14 7 -20 4 -29 -15 -15 -32 -55 -51 -125 -59 l-58 -6 -49 46 c-28
26 -50 44 -50 40z"/>
<path d="M3650 2420 c0 -13 7 -20 20 -20 13 0 20 7 20 20 0 13 -7 20 -20 20
-13 0 -20 -7 -20 -20z m30 0 c0 -5 -4 -10 -10 -10 -5 0 -10 5 -10 10 0 6 5 10
10 10 6 0 10 -4 10 -10z"/>
<path d="M1160 2266 c0 -26 -6 -48 -15 -56 -17 -15 -35 -5 -35 20 0 55 -183
36 -328 -33 -107 -52 -99 -73 58 -170 8 -5 -4 8 -28 29 -23 22 -42 42 -42 47
0 12 120 65 185 82 92 23 151 20 177 -10 31 -36 65 -33 85 9 18 39 12 77 -17
106 -30 30 -40 24 -40 -24z"/>
<path d="M2458 2258 c-2 -17 -17 -28 -53 -43 -87 -35 -95 -42 -95 -79 0 -18 6
-51 14 -72 24 -70 29 -130 12 -162 -19 -37 -35 -44 -114 -51 l-64 -6 23 -29
c21 -27 25 -28 92 -24 65 4 71 6 103 41 41 44 44 79 14 182 -28 95 -23 108 49
134 40 15 62 30 70 47 13 28 1 68 -24 78 -23 9 -23 9 -27 -16z"/>
<path d="M3374 2256 c-3 -15 -17 -29 -35 -35 -16 -6 -42 -16 -58 -22 -16 -6
-37 -19 -47 -30 -16 -18 -16 -22 0 -77 41 -143 41 -177 -3 -217 -16 -13 -41
-20 -87 -23 -35 -2 -64 -8 -64 -13 0 -5 9 -18 20 -29 24 -24 116 -28 158 -6
70 36 81 80 51 202 -12 50 -19 98 -16 107 3 8 27 23 54 33 26 9 56 24 66 32
22 20 22 64 -1 85 -25 23 -31 21 -38 -7z"/>
<path d="M2990 2237 c0 -7 4 -17 10 -23 5 -5 17 -38 26 -74 28 -111 4 -249
-46 -265 -27 -9 -60 3 -60 21 0 21 -30 64 -45 64 -8 0 -16 -19 -20 -47 -8 -56
-38 -103 -66 -103 -24 0 -25 -22 -1 -43 23 -21 51 -22 78 -2 19 13 30 32 49
90 6 18 7 17 28 -9 16 -19 32 -27 55 -28 36 -1 76 28 67 50 -3 8 4 30 16 49
41 66 10 243 -53 310 -24 26 -38 29 -38 10z"/>
<path d="M2105 2224 c5 -11 11 -48 13 -84 3 -55 0 -70 -20 -99 -32 -48 -68
-72 -116 -78 -41 -5 -41 -6 -44 -52 -3 -42 -5 -46 -30 -49 -33 -4 -35 -15 -8
-42 40 -40 95 -16 102 44 2 24 11 31 52 47 96 36 131 94 124 204 -4 65 -20 94
-62 117 -16 9 -18 8 -11 -8z"/>
<path d="M1302 2058 c-12 -90 -22 -180 -22 -200 0 -32 -3 -37 -30 -43 -38 -8
-43 -17 -24 -43 17 -25 47 -28 84 -9 23 11 25 21 43 162 32 267 31 254 12 275
-10 11 -23 20 -29 20 -7 0 -20 -65 -34 -162z"/>
<path d="M1984 2193 c-22 -22 -40 -67 -49 -120 -5 -35 -4 -43 8 -43 32 0 50
15 68 57 10 24 25 46 34 49 22 9 18 41 -7 58 -28 20 -33 20 -54 -1z"/>
<path d="M1576 2163 c12 -51 20 -59 34 -34 10 19 9 26 -6 42 -24 27 -35 24
-28 -8z"/>
<path d="M1744 2148 c-4 -6 -10 -72 -13 -147 l-6 -136 -29 -5 c-35 -6 -43 -22
-21 -44 21 -20 79 -21 99 0 9 8 16 32 16 52 0 47 11 64 30 52 26 -16 40 -11
40 15 0 19 -6 26 -27 30 -59 13 -78 41 -50 73 21 25 28 62 15 86 -18 35 -41
45 -54 24z"/>
<path d="M1471 2119 c-6 -17 -11 -55 -11 -84 0 -71 -16 -113 -51 -131 -33 -17
-36 -26 -13 -48 22 -23 48 -20 82 9 26 22 31 34 40 109 11 87 5 134 -23 164
-10 11 -14 8 -24 -19z"/>
<path d="M2640 2119 c0 -2 14 -31 30 -63 38 -75 39 -127 4 -173 -36 -47 -97
-76 -166 -77 -32 -1 -58 -4 -58 -8 0 -3 14 -18 32 -33 28 -24 38 -27 81 -22
58 7 143 52 171 90 31 42 29 137 -4 196 -20 35 -90 106 -90 90z"/>
<path d="M2516 2051 c-18 -33 -37 -146 -30 -166 7 -16 39 -29 53 -21 4 3 11
29 15 58 9 67 30 101 57 93 25 -8 24 6 -2 39 -29 37 -73 36 -93 -3z"/>
<path d="M1634 2035 c-6 -24 -16 -29 -67 -37 -18 -3 -18 -5 3 -30 14 -19 31
-28 50 -28 33 0 40 14 40 76 0 48 -16 59 -26 19z"/>
<path d="M690 2020 c0 -27 112 -118 206 -168 54 -28 111 -60 126 -69 15 -9 31
-14 35 -10 14 15 -53 66 -167 128 -63 34 -134 77 -157 96 -24 19 -43 29 -43
23z"/>
<path d="M1091 1869 c23 -25 41 -57 45 -77 6 -33 4 -39 -32 -69 -57 -48 -110
-52 -351 -27 -60 7 -62 6 -56 -15 3 -12 10 -24 15 -27 20 -12 198 -34 284 -34
85 0 94 2 138 31 74 49 83 83 41 155 -20 35 -99 104 -118 104 -2 0 13 -19 34
-41z"/>
<path d="M2647 1508 c-5 -17 -20 -28 -59 -42 -63 -22 -88 -42 -88 -70 0 -12
10 -60 22 -108 17 -65 20 -93 13 -114 -15 -42 -54 -65 -116 -68 -45 -2 -54 -6
-54 -22 0 -23 39 -44 85 -44 39 0 108 29 128 53 25 29 25 89 2 180 -26 102
-24 108 51 132 30 10 56 27 66 42 15 23 15 28 2 52 -19 34 -45 39 -52 9z"/>
<path d="M1957 1433 c-3 -21 -12 -87 -21 -148 -9 -60 -16 -131 -16 -156 0 -42
-3 -48 -30 -59 -42 -17 -60 0 -60 57 0 54 -24 153 -50 202 -19 38 -57 78 -65
69 -3 -3 6 -36 19 -74 19 -52 66 -294 66 -338 0 -3 -9 -14 -21 -25 -17 -16
-19 -23 -10 -40 29 -54 99 -3 87 63 l-7 34 41 -5 c57 -8 90 16 90 65 0 20 7
89 16 152 26 184 26 197 15 219 -19 36 -48 27 -54 -16z"/>
<path d="M1363 1409 c40 -64 43 -119 9 -166 -30 -42 -97 -68 -157 -60 -52 8
-51 11 -33 -94 12 -75 2 -119 -27 -119 -8 0 -15 -4 -15 -9 0 -19 32 -41 60
-41 38 0 52 41 44 131 l-7 69 34 0 c120 0 203 90 180 193 -12 49 -52 107 -91
130 l-30 18 33 -52z"/>
<path d="M2250 1426 c0 -3 9 -20 20 -38 21 -35 26 -82 11 -121 -5 -13 -39 -47
-76 -76 l-67 -53 77 -50 c82 -54 107 -87 85 -113 -23 -27 -48 -16 -133 60 -47
41 -89 75 -95 75 -8 0 -10 -24 -6 -77 6 -76 6 -78 -20 -93 l-26 -16 20 -22
c45 -48 90 -15 90 66 0 29 3 52 8 52 4 0 38 -27 75 -60 44 -38 77 -60 93 -60
24 0 64 31 64 50 0 27 -29 63 -81 100 -33 23 -59 47 -59 54 0 7 20 27 45 45
92 66 105 161 32 239 -22 24 -57 47 -57 38z"/>
<path d="M1197 1398 c-31 -11 -39 -35 -35 -104 3 -45 5 -49 31 -52 25 -3 27
-1 27 36 0 52 18 66 75 60 25 -3 45 -4 45 -1 0 18 -27 47 -55 59 -39 16 -49
16 -88 2z"/>
<path d="M2117 1354 c-21 -14 -42 -37 -48 -50 -12 -33 -12 -101 1 -109 16 -10
50 14 50 36 0 27 53 79 79 79 27 0 28 31 3 53 -25 23 -41 21 -85 -9z"/>
<path d="M1631 1346 c-7 -8 -22 -53 -35 -100 l-23 -86 38 0 c38 0 38 0 49 55
6 30 16 57 21 60 5 4 9 19 9 34 0 45 -35 66 -59 37z"/>
<path d="M1563 1093 c-7 -2 -27 -26 -44 -51 -17 -26 -38 -51 -45 -55 -20 -11
-17 -45 4 -55 31 -17 78 16 118 84 9 15 24 19 80 21 59 1 69 4 69 19 0 10 -11
24 -25 31 -24 12 -132 17 -157 6z"/>
</g>
</svg>
